<svg width="269" height="250" viewBox="0 0 269 250" fill="none" xmlns="http://www.w3.org/2000/svg">
<g clip-path="url(#clip0_6_188)">
<path d="M248.335 68.9989C245.87 64.6544 243.134 60.4615 240.144 56.4435C238.048 53.6245 235.834 50.8997 233.502 48.2689H233.496C229.275 43.5064 224.685 39.0686 219.766 34.9951C218.759 34.16 217.739 33.342 216.704 32.5411C207.371 25.2886 197.02 19.3814 185.969 15L186.067 30.7729L187.125 210.574H95.4694L90.3147 31.1121L90.6987 15.5911C45.7629 34.0501 14.2113 77.4503 14.2113 128.051C14.203 138.495 15.5672 148.897 18.2706 159.002C19.4125 163.274 20.7949 167.48 22.4116 171.603C22.9952 173.1 23.611 174.583 24.2588 176.052C24.5711 176.768 24.8891 177.478 25.2189 178.184C25.642 179.108 26.0827 180.029 26.535 180.938C26.8852 181.653 27.2451 182.364 27.6148 183.07C28.0905 183.996 28.5817 184.915 29.0885 185.826C29.4795 186.541 29.8822 187.251 30.2908 187.958C36.8821 199.345 45.2989 209.627 55.2212 218.413C58.049 220.919 60.9916 223.294 64.0489 225.539C85.6815 241.416 112.009 250 139.068 250C166.127 250 192.454 241.416 214.087 225.539C215.75 224.319 217.38 223.058 218.975 221.757C220.034 220.896 221.076 220.019 222.1 219.126C222.372 218.889 222.643 218.653 222.912 218.413C232.059 210.314 239.932 200.939 246.275 190.592C248.604 186.798 250.716 182.882 252.602 178.86C253.101 177.8 253.584 176.73 254.052 175.651C256.206 170.702 258.017 165.618 259.474 160.433C259.699 159.632 259.916 158.828 260.125 158.022V158.019C260.16 157.879 260.198 157.737 260.233 157.597C260.449 156.748 260.656 155.892 260.854 155.037V155.035C261.496 152.278 262.038 149.489 262.48 146.666C262.535 146.304 262.591 145.942 262.643 145.58C262.664 145.449 262.684 145.318 262.699 145.187V145.184C263.014 143.004 263.27 140.807 263.466 138.594C263.77 135.12 263.922 131.605 263.924 128.051C263.957 107.392 258.592 87.0666 248.335 68.9989Z" fill="#F2F2F2"/>
<path d="M240.554 201.665C248.102 191.912 251.005 178.175 245.133 167.419C239.627 179.517 229.823 189.363 217.456 195.215C212.677 197.455 207.119 199.47 204.908 204.099C203.531 206.979 203.794 210.379 204.9 213.363C206.006 216.348 207.888 219.003 209.749 221.622L209.848 222.406C221.568 217.759 233.006 211.418 240.554 201.665Z" fill="#E6E6E6"/>
<path d="M244.883 167.505C244.545 177.543 240.908 187.224 234.488 195.172C233.138 196.907 231.511 198.427 229.665 199.677C227.827 200.839 225.696 201.509 223.495 201.618C221.445 201.758 219.331 201.675 217.353 202.289C216.345 202.618 215.421 203.147 214.642 203.842C213.862 204.536 213.246 205.38 212.831 206.318C211.736 208.631 211.575 211.181 211.508 213.681C211.433 216.457 211.402 219.341 210.033 221.864C209.867 222.169 210.372 222.398 210.538 222.092C212.92 217.703 211.373 212.569 212.793 207.955C213.455 205.802 214.8 203.826 217.048 202.963C219.014 202.209 221.194 202.293 223.271 202.168C225.42 202.092 227.516 201.515 229.378 200.485C231.284 199.329 232.97 197.872 234.364 196.175C237.567 192.402 240.13 188.171 241.958 183.637C244.075 178.474 245.253 173.002 245.44 167.459C245.451 167.116 244.894 167.165 244.883 167.505Z" fill="white"/>
<path d="M236.713 192.729C238.254 193.578 240.06 193.876 241.809 193.569C243.558 193.262 245.136 192.37 246.261 191.053C246.487 190.786 246.064 190.437 245.837 190.704C244.792 191.932 243.322 192.763 241.692 193.045C240.063 193.328 238.382 193.044 236.952 192.246C236.641 192.073 236.404 192.557 236.713 192.729Z" fill="white"/>
<path d="M224.545 201.677C223.569 198.329 223.949 194.752 225.61 191.659C225.774 191.353 225.269 191.125 225.104 191.43C223.383 194.652 222.995 198.375 224.018 201.857C224.116 202.189 224.642 202.007 224.545 201.677H224.545Z" fill="white"/>
<path d="M243.334 178.499C242.666 178.289 242.063 177.924 241.58 177.436C241.096 176.949 240.746 176.354 240.562 175.706C240.469 175.373 239.943 175.555 240.036 175.886C240.243 176.601 240.629 177.258 241.163 177.798C241.696 178.337 242.359 178.744 243.095 178.982C243.162 179.01 243.238 179.012 243.307 178.989C243.377 178.965 243.434 178.917 243.467 178.855C243.499 178.79 243.502 178.717 243.477 178.65C243.452 178.584 243.401 178.529 243.334 178.499Z" fill="white"/>
<path d="M203.116 158.859C203.169 159.069 203.221 159.278 203.27 159.491C203.954 162.31 204.399 165.178 204.598 168.066C204.617 168.289 204.633 168.516 204.645 168.739C205.048 175.702 204.095 182.676 201.835 189.306C200.933 191.943 199.823 194.512 198.514 196.988C196.705 200.408 194.46 203.979 193.954 207.662C193.896 208.045 193.864 208.432 193.857 208.82L208.839 222.46C208.889 222.475 208.936 222.493 208.987 222.507L209.559 223.078C209.636 222.955 209.713 222.826 209.789 222.702C209.834 222.631 209.876 222.557 209.921 222.485C209.95 222.437 209.978 222.388 210.007 222.346C210.017 222.33 210.026 222.314 210.033 222.301C210.062 222.259 210.084 222.217 210.11 222.178C210.542 221.456 210.97 220.73 211.393 219.999C211.396 219.996 211.396 219.996 211.396 219.99C214.604 214.417 217.354 208.539 219.084 202.449C219.136 202.266 219.192 202.08 219.237 201.89C220.001 199.141 220.528 196.337 220.814 193.505C220.966 191.954 221.035 190.397 221.022 188.84C220.979 184.815 220.275 180.822 218.935 177.007C216.263 169.401 211.077 162.698 203.684 159.127C203.495 159.036 203.309 158.947 203.116 158.859Z" fill="#E6E6E6"/>
<path d="M202.969 159.072C209.019 167.281 212.21 177.105 212.089 187.147C212.103 189.309 211.76 191.46 211.074 193.52C210.338 195.507 209.059 197.268 207.369 198.622C205.821 199.915 204.081 201.065 202.888 202.695C202.29 203.538 201.886 204.492 201.701 205.495C201.516 206.498 201.554 207.527 201.815 208.515C202.396 210.992 203.873 213.121 205.393 215.156C207.081 217.415 208.872 219.736 209.367 222.538C209.427 222.878 209.975 222.769 209.915 222.43C209.053 217.554 204.586 214.346 202.814 209.844C201.987 207.743 201.817 205.392 203.069 203.409C204.164 201.674 205.957 200.486 207.537 199.191C209.205 197.893 210.515 196.225 211.354 194.331C212.147 192.311 212.576 190.176 212.621 188.019C212.803 183.162 212.185 178.309 210.791 173.636C209.23 168.295 206.725 163.248 203.385 158.714C203.178 158.433 202.764 158.793 202.969 159.072Z" fill="white"/>
<path d="M212.327 183.915C214.092 183.706 215.721 182.904 216.924 181.652C218.127 180.4 218.826 178.779 218.895 177.08C218.908 176.736 218.35 176.701 218.337 177.046C218.275 178.628 217.625 180.137 216.502 181.301C215.379 182.465 213.858 183.206 212.213 183.392C211.856 183.433 211.972 183.956 212.327 183.915H212.327Z" fill="white"/>
<path d="M208.245 198.066C205.358 195.954 203.409 192.879 202.788 189.454C202.726 189.114 202.179 189.223 202.24 189.562C202.894 193.125 204.928 196.321 207.938 198.513C208.225 198.721 208.53 198.273 208.245 198.066V198.066Z" fill="white"/>
<path d="M208.654 168.741C207.989 168.958 207.277 169.014 206.584 168.903C205.891 168.792 205.237 168.519 204.682 168.107C204.398 167.895 204.093 168.343 204.375 168.554C204.991 169.006 205.713 169.307 206.479 169.431C207.244 169.555 208.03 169.498 208.767 169.265C208.839 169.248 208.901 169.206 208.941 169.148C208.981 169.089 208.997 169.018 208.984 168.949C208.969 168.879 208.926 168.819 208.864 168.78C208.802 168.741 208.726 168.727 208.654 168.741Z" fill="white"/>
<path d="M5.95336 147.042C-0.740934 136.735 -2.46677 122.818 4.29941 112.554C8.75959 125.04 17.6946 135.615 29.5235 142.408C34.0953 145.012 39.4639 147.453 41.2748 152.238C42.4017 155.215 41.8515 158.584 40.4953 161.472C39.139 164.361 37.038 166.861 34.9599 169.326L34.7954 170.101C23.5084 164.559 12.6477 157.349 5.95336 147.042Z" fill="#005656"/>
<path d="M4.54172 112.659C4.02576 122.69 6.82806 132.621 12.5506 141.042C13.7489 142.876 15.2419 144.518 16.9748 145.907C18.7086 147.208 20.7751 148.041 22.9596 148.32C24.9909 148.62 27.105 148.701 29.0249 149.467C30.0016 149.873 30.8774 150.473 31.595 151.225C32.3125 151.978 32.8556 152.867 33.1886 153.834C34.084 156.224 34.028 158.779 33.8824 161.276C33.7208 164.048 33.507 166.925 34.657 169.546C34.7964 169.863 34.2729 170.052 34.1338 169.734C32.1328 165.174 34.1106 160.178 33.088 155.468C32.6108 153.271 31.4382 151.197 29.271 150.163C27.3759 149.258 25.1959 149.172 23.1364 148.886C21.0011 148.644 18.9605 147.905 17.1926 146.735C15.3914 145.434 13.8347 143.851 12.5891 142.051C9.71751 138.042 7.52293 133.626 6.08578 128.965C4.41472 123.654 3.70602 118.109 3.99034 112.569C4.00809 112.227 4.55937 112.318 4.54173 112.659L4.54172 112.659Z" fill="#00B5B5"/>
<path d="M10.541 138.434C8.93322 139.161 7.10775 139.317 5.39064 138.875C3.67354 138.433 2.17661 137.422 1.1672 136.022C0.963974 135.738 1.41581 135.423 1.61931 135.707C2.55676 137.012 3.95125 137.954 5.55109 138.362C7.15094 138.771 8.85075 138.619 10.3437 137.934C10.6684 137.786 10.8638 138.287 10.541 138.434Z" fill="#00B5B5"/>
<path d="M21.9086 148.298C23.1654 145.037 23.0904 141.442 21.6985 138.231C21.5604 137.913 22.0838 137.724 22.2218 138.042C23.6636 141.386 23.7338 145.127 22.4181 148.519C22.2925 148.842 21.7837 148.62 21.9086 148.298Z" fill="#00B5B5"/>
<path d="M5.1512 123.736C5.83454 123.579 6.46639 123.262 6.99 122.814C7.51361 122.366 7.91259 121.8 8.1511 121.168C8.27239 120.843 8.78111 121.066 8.66061 121.388C8.3937 122.086 7.95227 122.71 7.37491 123.206C6.79755 123.703 6.10181 124.056 5.3485 124.237C5.27898 124.259 5.20305 124.256 5.13612 124.227C5.0692 124.198 5.01632 124.146 4.98822 124.081C4.96244 124.014 4.9651 123.941 4.99562 123.876C5.02614 123.812 5.08205 123.762 5.1512 123.736Z" fill="#00B5B5"/>
<path d="M46.9048 107.287C46.835 107.492 46.7653 107.697 46.6984 107.905C45.7762 110.662 45.0897 113.486 44.6457 116.349C44.6077 116.57 44.5727 116.794 44.5414 117.015C43.5486 123.924 43.9057 130.949 45.5946 137.733C46.2693 140.432 47.1577 143.078 48.2521 145.648C49.7638 149.197 51.6981 152.93 51.8898 156.64C51.9143 157.027 51.9138 157.415 51.8882 157.802L35.7964 170.233C35.745 170.244 35.6964 170.258 35.6448 170.269L35.0261 170.793C34.9599 170.664 34.8943 170.529 34.8281 170.401C34.7894 170.326 34.7543 170.249 34.7157 170.174C34.691 170.124 34.6665 170.073 34.6412 170.029C34.633 170.012 34.6249 169.995 34.6196 169.982C34.5943 169.937 34.5757 169.894 34.5534 169.853C34.1841 169.1 33.8196 168.343 33.46 167.582C33.4571 167.578 33.4571 167.578 33.4577 167.572C30.7334 161.768 28.4918 155.696 27.2852 149.492C27.249 149.306 27.2096 149.115 27.1807 148.923C26.6531 146.124 26.3656 143.288 26.3211 140.443C26.302 138.886 26.3654 137.328 26.511 135.777C26.8952 131.769 27.9363 127.844 29.596 124.145C32.9059 116.773 38.6446 110.495 46.3163 107.51C46.5126 107.434 46.7055 107.36 46.9048 107.287Z" fill="#005F5F"/>
<path d="M47.0336 107.511C40.3062 115.223 36.2909 124.766 35.558 134.784C35.3602 136.938 35.5187 139.109 36.0277 141.215C36.5929 143.252 37.7181 145.108 39.2866 146.588C40.7201 147.997 42.3569 149.279 43.4074 150.996C43.9314 151.883 44.2536 152.865 44.3527 153.879C44.4518 154.893 44.3256 155.916 43.9824 156.88C43.1926 159.304 41.5393 161.311 39.8512 163.221C37.9768 165.341 35.9947 167.515 35.2628 170.27C35.1741 170.604 34.6376 170.453 34.7262 170.119C35.9997 165.326 40.7244 162.476 42.8732 158.127C43.8758 156.097 44.2449 153.767 43.166 151.693C42.2226 149.879 40.5358 148.556 39.0715 147.142C37.5193 145.719 36.355 143.954 35.6803 142.002C35.0608 139.927 34.8151 137.766 34.9538 135.612C35.1851 130.757 36.2131 125.968 38.0002 121.419C40.0098 116.216 42.9351 111.381 46.6498 107.122C46.8798 106.858 47.2621 107.249 47.0336 107.511V107.511Z" fill="#00B5B5"/>
<path d="M35.5954 131.545C33.8544 131.199 32.2985 130.273 31.2058 128.931C30.113 127.59 29.5544 125.921 29.6299 124.222C29.6336 124.152 29.6653 124.087 29.7183 124.04C29.7713 123.993 29.8415 123.967 29.914 123.968C29.9865 123.969 30.0557 123.997 30.107 124.046C30.1584 124.095 30.1878 124.161 30.1891 124.231C30.1159 125.812 30.6363 127.367 31.6566 128.614C32.6768 129.862 34.1297 130.719 35.7529 131.032C36.1056 131.1 35.9461 131.613 35.5954 131.545Z" fill="#00B5B5"/>
<path d="M38.4614 145.965C41.5185 144.085 43.7219 141.171 44.6323 137.806C44.7222 137.473 45.2587 137.624 45.1689 137.957C44.2146 141.457 41.9152 144.484 38.7295 146.435C38.4257 146.62 38.1593 146.15 38.4614 145.965Z" fill="#00B5B5"/>
<path d="M40.546 116.706C41.1905 116.974 41.8945 117.085 42.5948 117.028C43.2951 116.972 43.9698 116.75 44.5583 116.383C44.8595 116.193 45.1256 116.664 44.8264 116.852C44.1742 117.255 43.4288 117.499 42.6552 117.563C41.8816 117.627 41.1033 117.509 40.3885 117.219C40.3187 117.197 40.2603 117.151 40.2251 117.089C40.1899 117.027 40.1805 116.955 40.1989 116.887C40.2201 116.819 40.2685 116.762 40.3335 116.728C40.3985 116.695 40.4748 116.686 40.546 116.706Z" fill="#00B5B5"/>
<path d="M130.221 41.83C140.006 41.83 147.938 34.2446 147.938 24.8876C147.938 15.5306 140.006 7.94519 130.221 7.94519C120.436 7.94519 112.504 15.5306 112.504 24.8876C112.504 34.2446 120.436 41.83 130.221 41.83Z" fill="#005F5F"/>
<path d="M184.467 24.0035C182.871 22.3907 181.185 20.8608 179.418 19.4203C175.967 16.6213 172.145 14.2414 167.886 12.7422C166.283 12.1759 164.626 11.7587 162.938 11.4966C162.736 11.4652 162.536 11.4339 162.333 11.4082C162.318 11.4068 162.303 11.4068 162.289 11.4082C162.257 11.3998 162.225 11.3941 162.193 11.3911C161.779 11.3398 161.365 11.2999 160.947 11.2714C158.7 11.1286 156.443 11.3228 154.259 11.8472C152.991 12.153 151.755 12.565 150.563 13.0785C149.369 13.6374 148.211 14.2647 147.096 14.9568C146.498 15.3046 145.881 15.6233 145.248 15.9116C143.402 16.7482 141.448 17.3463 139.436 17.6902C138.078 17.9232 136.703 18.0528 135.323 18.0778C134.125 18.1006 132.995 18.1405 131.86 18.5538C130.648 18.9893 129.559 19.6898 128.681 20.5994C127.802 21.5091 127.159 22.6026 126.801 23.7925C126.773 23.8982 126.781 24.0097 126.824 24.1108C126.867 24.2118 126.943 24.2971 127.04 24.354C127.347 24.565 127.645 24.8044 127.97 24.9925C128.257 25.1176 128.563 25.1975 128.876 25.2291C129.389 25.3317 129.902 25.4314 130.417 25.5284C132.31 25.8875 134.21 26.2057 136.119 26.4832C139.958 27.039 143.819 27.4304 147.701 27.6575C147.725 27.6608 147.749 27.6627 147.773 27.6632C152.159 27.9163 156.557 27.9573 160.947 27.7857C161.612 27.7601 162.274 27.7287 162.938 27.6917C165.707 27.5435 168.469 27.3097 171.224 26.9905C173.773 26.6941 176.311 26.3264 178.84 25.8875C180.646 25.574 182.445 25.2243 184.238 24.8386C184.325 24.814 184.404 24.7683 184.467 24.706C184.53 24.6436 184.575 24.5668 184.599 24.4828C184.622 24.3989 184.622 24.3107 184.599 24.2267C184.576 24.1427 184.53 24.0658 184.467 24.0035Z" fill="#E6E6E6"/>
<path d="M147.642 46.5945C145.077 43.9707 142.251 41.5918 139.204 39.4917C138.193 38.8133 137.153 38.1749 136.083 37.5906C134.771 36.8664 133.409 36.2293 132.006 35.6838C131.693 35.5612 131.377 35.4444 131.061 35.3332C129.266 34.6975 127.404 34.2502 125.508 33.9993C125.493 33.9964 125.478 33.9993 125.463 33.9964C125.433 33.9907 125.401 33.985 125.371 33.9793C124.452 33.8653 123.526 33.8111 122.599 33.8169C121.934 33.8169 121.266 33.8511 120.605 33.9138C119.536 34.0145 118.476 34.1898 117.433 34.4382C116.918 34.5608 116.405 34.7033 115.901 34.8657C115.167 35.097 114.445 35.3653 113.74 35.6695C113.729 35.6752 113.72 35.6781 113.708 35.6838C112.524 36.2374 111.378 36.8599 110.274 37.5478C110.25 37.5621 110.223 37.5763 110.2 37.5906C108.946 38.3077 107.62 38.9016 106.241 39.3634C105.058 39.7592 103.844 40.066 102.611 40.2812C101.253 40.5148 99.8773 40.6435 98.4977 40.666C97.2994 40.6888 96.1698 40.7287 95.0372 41.1448C93.8248 41.5802 92.7358 42.2807 91.857 43.1903C90.9783 44.0999 90.3341 45.1935 89.9761 46.3836C89.9485 46.4893 89.9567 46.6006 89.9996 46.7015C90.0424 46.8024 90.1177 46.8877 90.2146 46.9451C90.5216 47.156 90.8226 47.3926 91.1445 47.5807C91.4308 47.7068 91.737 47.7867 92.0506 47.8173C92.5633 47.9199 93.0759 48.0225 93.5916 48.1194C95.4843 48.4785 97.3859 48.7958 99.2965 49.0714C101.916 49.4505 104.547 49.7535 107.189 49.9806C108.441 50.0918 109.694 50.183 110.948 50.2542C114.164 50.4395 117.383 50.5117 120.605 50.4708C121.269 50.4623 121.934 50.448 122.599 50.4281C126.545 50.3169 130.48 50.0338 134.402 49.5787C138.774 49.0729 143.117 48.3546 147.412 47.4268C147.499 47.4024 147.578 47.357 147.641 47.295C147.704 47.2329 147.75 47.1563 147.773 47.0726C147.796 46.9889 147.796 46.9008 147.773 46.8171C147.75 46.7333 147.705 46.6567 147.642 46.5945Z" fill="#E6E6E6"/>
<path d="M103.48 1.12485L119.089 207.385L87.8716 210.035V3.74907C91.5914 0.970515 96.9311 0.535804 103.48 1.12485Z" fill="#CCCCCC"/>
<path d="M180.526 1.12485L164.918 207.385L196.135 210.035V3.74907C192.415 0.970515 187.075 0.535804 180.526 1.12485Z" fill="#CCCCCC"/>
<path d="M196.869 3.83908C195.901 1.56793 193.841 0 191.46 0H92.2143C88.9029 0 86.2114 3.03829 86.2114 6.77643V211.783C86.1825 213.679 86.924 215.512 88.2799 216.897C88.9894 217.609 89.8876 218.124 90.879 218.387C91.3139 218.502 91.7631 218.56 92.2143 218.559H191.46C191.911 218.56 192.36 218.502 192.795 218.387C195.465 217.701 197.462 215.002 197.462 211.783V6.77644C197.465 5.76986 197.264 4.77231 196.869 3.83908ZM195.471 211.783C195.471 214.279 193.671 216.311 191.46 216.311H92.2143C90.3813 216.311 88.8284 214.915 88.3544 213.014C88.2532 212.611 88.2021 212.197 88.2024 211.783V6.77644C88.2024 4.27986 90.0027 2.25098 92.2143 2.25098H191.46C191.867 2.25067 192.27 2.32018 192.652 2.45622C194.282 3.02822 195.471 4.74756 195.471 6.77644V211.783Z" fill="#CCCCCC"/>
<path d="M196.467 62.3147H87.2074V64.2202H196.467V62.3147Z" fill="#CCCCCC"/>
<path d="M196.467 22.9814H87.2074V24.8868H196.467V22.9814Z" fill="#CCCCCC"/>
<path d="M196.467 94.0718H87.2074V95.9773H196.467V94.0718Z" fill="#CCCCCC"/>
<path d="M122.663 0.855072H120.671V121.065H122.663V0.855072Z" fill="#CCCCCC"/>
<path d="M163.004 0.855072H161.011V121.065H163.004V0.855072Z" fill="#CCCCCC"/>
<path d="M208.92 206.651H78.0743C75.6973 206.653 73.4185 207.557 71.7377 209.165C70.0569 210.772 69.1115 212.951 69.1086 215.224C69.1075 216.317 69.3271 217.4 69.7554 218.414C70.4211 220.003 71.5691 221.366 73.0518 222.326C74.5344 223.286 76.2837 223.8 78.0743 223.801H208.92C210.485 223.8 212.023 223.408 213.38 222.663C214.738 221.918 215.868 220.846 216.658 219.554C216.883 219.189 217.078 218.807 217.242 218.414C217.67 217.4 217.89 216.317 217.889 215.224C217.885 212.951 216.939 210.772 215.258 209.164C213.576 207.557 211.297 206.653 208.92 206.651Z" fill="#CCCCCC"/>
<path d="M196.467 116.619H87.8716V122.971H196.467V116.619Z" fill="#CCCCCC"/>
<path d="M141.173 114.714H143.166C144.134 114.714 145.064 115.082 145.749 115.737C146.434 116.392 146.819 117.281 146.819 118.207H137.52C137.52 117.749 137.614 117.294 137.798 116.87C137.982 116.447 138.251 116.062 138.59 115.737C138.929 115.413 139.332 115.155 139.775 114.98C140.218 114.804 140.693 114.714 141.173 114.714Z" fill="#CCCCCC"/>
<path d="M144.085 134.532C155.451 134.532 164.665 125.721 164.665 114.852C164.665 103.983 155.451 95.1714 144.085 95.1714C132.719 95.1714 123.505 103.983 123.505 114.852C123.505 125.721 132.719 134.532 144.085 134.532Z" fill="#FFB8B8"/>
<path d="M121.127 95.9191C121.283 93.6591 122.845 91.3464 127.811 90.1379C127.811 90.1379 136.333 79.7172 147.913 85.182C147.913 85.182 153.528 84.2583 157.691 89.8284C157.691 89.8284 161.818 87.5006 163.559 91.6266C163.559 91.6266 168.4 100.043 166.618 108.627C164.836 117.212 163.924 118.283 163.924 118.283C163.924 118.283 166.195 100.526 153.111 101.757C140.028 102.989 129.494 98.5888 126.531 108.222C124.071 116.221 124.38 120.376 124.38 120.376C124.38 120.376 116.153 112.396 118.95 106.112C120.381 102.899 120.887 99.4044 121.127 95.9191Z" fill="#2F2F2F"/>
<path d="M88.1188 222.404H201.955C201.194 214.1 200.697 182.359 200.697 180.27C200.697 171.056 192.812 161.001 192.812 161.001L189.99 159.509L166.422 152.478L160.323 144.902C159.684 144.106 158.861 143.463 157.919 143.023C156.976 142.583 155.94 142.358 154.891 142.365L135.624 142.504C133.929 142.516 132.299 143.134 131.055 144.235L119.125 154.819L101.626 162.809L101.596 162.781L101.414 162.911L98.8168 164.699L97.1464 165.854C97.1464 165.854 92.7644 170.881 89.2621 185.96C88.7351 188.228 88.3653 217.588 88.1188 222.404Z" fill="#00B5B5"/>
<path d="M228.303 218.414C228.029 218.653 227.751 218.89 227.474 219.126C226.425 220.018 225.361 220.895 224.282 221.757C222.652 223.057 220.987 224.317 219.289 225.539H66.0446C62.9239 223.299 59.9184 220.924 57.0283 218.414H228.303Z" fill="#3C3C3C"/>
<path d="M172.13 220.124H115.797L116.989 214.708H170.938L172.13 220.124Z" fill="#2F2E41"/>
<path d="M223.096 196.752H208.437C208.106 196.751 207.779 196.819 207.479 196.952C207.179 197.085 206.913 197.279 206.699 197.521C206.495 197.484 206.287 197.464 206.079 197.464C205.623 197.464 205.17 197.55 204.748 197.716C204.326 197.883 203.942 198.128 203.619 198.437C203.295 198.746 203.039 199.112 202.864 199.516C202.689 199.92 202.599 200.352 202.599 200.789C202.599 201.226 202.689 201.659 202.864 202.062C203.039 202.466 203.295 202.832 203.619 203.141C203.942 203.45 204.326 203.695 204.748 203.862C205.17 204.029 205.623 204.114 206.079 204.114C206.604 204.114 207.122 203.999 207.594 203.778L207.838 206.651L208.81 218.006C208.856 218.148 208.918 218.284 208.994 218.414C209.191 218.758 209.481 219.046 209.834 219.247C210.187 219.448 210.59 219.554 211 219.554H220.532C220.943 219.553 221.347 219.447 221.7 219.247C222.053 219.046 222.344 218.758 222.541 218.414C222.616 218.284 222.677 218.147 222.723 218.006L225.286 199.588C225.392 199.26 225.415 198.913 225.355 198.575C225.295 198.237 225.152 197.917 224.939 197.641C224.726 197.365 224.448 197.141 224.128 196.987C223.808 196.832 223.454 196.752 223.096 196.752ZM206.079 203.165C205.421 203.164 204.79 202.913 204.325 202.468C203.859 202.023 203.598 201.419 203.598 200.789C203.598 200.159 203.859 199.556 204.325 199.11C204.79 198.665 205.421 198.414 206.079 198.413C206.124 198.413 206.166 198.425 206.211 198.428C206.112 198.81 206.125 199.211 206.246 199.588L207.295 202.848C206.926 203.054 206.507 203.163 206.079 203.165Z" fill="#3F3D56"/>
<path d="M189.987 136.489H97.1949C96.3977 136.49 95.6335 136.794 95.0698 137.333C94.506 137.872 94.1888 138.603 94.1875 139.365V199.243C94.1883 200.005 94.5054 200.736 95.0692 201.276C95.633 201.815 96.3976 202.118 97.1949 202.119H189.987C190.785 202.118 191.549 201.815 192.113 201.276C192.677 200.736 192.994 200.005 192.995 199.243V139.365C192.993 138.603 192.676 137.872 192.112 137.333C191.549 136.794 190.784 136.49 189.987 136.489Z" fill="#3C3C3C"/>
<path d="M154.041 184.467H132.333C132.026 184.468 131.732 184.585 131.515 184.793C131.298 185 131.176 185.282 131.177 185.576V218.368H155.2V185.576C155.201 185.43 155.171 185.286 155.112 185.152C155.054 185.017 154.969 184.895 154.861 184.792C154.753 184.689 154.626 184.607 154.485 184.551C154.344 184.496 154.193 184.467 154.041 184.467ZM143.26 203.099C142.581 203.096 141.931 202.837 141.451 202.378C140.971 201.919 140.7 201.297 140.697 200.648V196.866C140.698 196.216 140.968 195.593 141.449 195.134C141.929 194.675 142.581 194.417 143.26 194.417C143.939 194.417 144.591 194.675 145.072 195.134C145.552 195.593 145.823 196.216 145.823 196.866V200.648C145.82 201.297 145.549 201.919 145.069 202.378C144.589 202.837 143.939 203.096 143.26 203.099Z" fill="#2F2E41"/>
<path d="M131.102 217.319V220.483C131.103 220.647 131.171 220.804 131.292 220.92C131.413 221.036 131.578 221.101 131.749 221.101H154.628C154.8 221.101 154.964 221.035 155.085 220.919C155.206 220.804 155.274 220.647 155.275 220.483V217.319H131.102Z" fill="#3F3D56"/>
<path d="M188.014 198.617C188.823 198.617 189.479 197.99 189.479 197.216C189.479 196.442 188.823 195.815 188.014 195.815C187.205 195.815 186.549 196.442 186.549 197.216C186.549 197.99 187.205 198.617 188.014 198.617Z" fill="#2F2E41"/>
<path d="M108.909 195.184C108.841 195.184 108.775 195.197 108.713 195.221C108.65 195.246 108.594 195.282 108.546 195.328C108.499 195.373 108.461 195.427 108.435 195.487C108.409 195.546 108.396 195.61 108.396 195.674V198.197C108.396 198.327 108.451 198.451 108.547 198.543C108.643 198.634 108.773 198.686 108.909 198.686C109.044 198.686 109.175 198.634 109.271 198.543C109.367 198.451 109.421 198.327 109.421 198.197V195.674C109.421 195.61 109.408 195.546 109.382 195.487C109.357 195.427 109.319 195.373 109.271 195.328C109.224 195.282 109.167 195.246 109.105 195.221C109.043 195.197 108.976 195.184 108.909 195.184Z" fill="#2F2E41"/>
<path d="M111.693 195.184C111.625 195.184 111.559 195.197 111.496 195.221C111.434 195.246 111.378 195.282 111.33 195.328C111.282 195.373 111.245 195.427 111.219 195.487C111.193 195.546 111.18 195.61 111.18 195.674V198.197C111.18 198.327 111.234 198.452 111.33 198.543C111.426 198.635 111.557 198.687 111.693 198.687C111.829 198.687 111.959 198.635 112.055 198.543C112.151 198.452 112.205 198.327 112.205 198.197V195.674C112.205 195.61 112.192 195.546 112.166 195.487C112.14 195.427 112.103 195.373 112.055 195.328C112.008 195.282 111.951 195.246 111.889 195.221C111.827 195.197 111.76 195.184 111.693 195.184Z" fill="#2F2E41"/>
<path d="M114.476 195.184C114.409 195.184 114.342 195.197 114.28 195.221C114.218 195.246 114.162 195.282 114.114 195.328C114.066 195.373 114.029 195.427 114.003 195.487C113.977 195.546 113.964 195.61 113.964 195.674V198.197C113.964 198.327 114.018 198.451 114.114 198.543C114.211 198.634 114.341 198.686 114.476 198.686C114.612 198.686 114.742 198.634 114.839 198.543C114.935 198.451 114.989 198.327 114.989 198.197V195.674C114.989 195.61 114.976 195.546 114.95 195.487C114.924 195.427 114.887 195.373 114.839 195.328C114.791 195.282 114.735 195.246 114.673 195.221C114.61 195.197 114.544 195.184 114.476 195.184Z" fill="#2F2E41"/>
<path d="M117.26 195.184C117.193 195.184 117.126 195.197 117.064 195.221C117.002 195.246 116.945 195.282 116.898 195.328C116.85 195.373 116.812 195.427 116.787 195.487C116.761 195.546 116.748 195.61 116.748 195.674V198.197C116.748 198.327 116.802 198.451 116.898 198.543C116.994 198.634 117.125 198.686 117.26 198.686C117.396 198.686 117.526 198.634 117.622 198.543C117.718 198.451 117.773 198.327 117.773 198.197V195.674C117.773 195.61 117.76 195.546 117.734 195.487C117.708 195.427 117.67 195.373 117.623 195.328C117.575 195.282 117.519 195.246 117.457 195.221C117.394 195.197 117.328 195.184 117.26 195.184Z" fill="#2F2E41"/>
<path d="M119.482 218.699C123.761 218.699 127.231 215.381 127.231 211.288C127.231 207.195 123.761 203.877 119.482 203.877C115.202 203.877 111.732 207.195 111.732 211.288C111.732 215.381 115.202 218.699 119.482 218.699Z" fill="#FFB8B8"/>
<path d="M173.621 220.124C177.901 220.124 181.37 216.806 181.37 212.713C181.37 208.62 177.901 205.302 173.621 205.302C169.341 205.302 165.871 208.62 165.871 212.713C165.871 216.806 169.341 220.124 173.621 220.124Z" fill="#FFB8B8"/>
<path d="M253.61 123.264C252.844 122.053 251.937 120.76 250.516 120.365C248.87 119.907 247.18 120.816 245.745 121.714C241.457 124.399 237.327 127.309 233.375 130.43L233.379 130.477C236.456 130.274 239.01 138.099 242.087 137.896C244.31 137.749 247.133 129.555 249.098 128.549C249.843 128.168 250.57 127.658 251.415 127.622C252.465 127.578 253.38 128.279 254.099 129.012C258.353 133.344 259.584 139.969 264.357 143.775C261.348 136.677 257.754 129.819 253.61 123.264Z" fill="#005F5F"/>
<path d="M261.799 133.787C264.043 137.663 266.424 141.463 268.94 145.185V145.188C268.925 145.319 268.905 145.45 268.884 145.581C268.58 145.137 268.279 144.69 267.981 144.242C265.721 140.853 263.574 137.399 261.54 133.881C260.574 132.208 259.632 130.522 258.714 128.822C258.005 127.505 257.31 126.181 256.63 124.849C256.437 124.467 256.249 124.085 256.061 123.7C255.62 122.799 255.185 121.893 254.72 121.004C254.189 119.989 253.543 118.929 252.568 118.247C252.125 117.924 251.594 117.729 251.039 117.683C250.256 117.688 249.49 117.898 248.824 118.29C243.782 120.825 239.076 123.928 234.806 127.533C230.532 131.125 226.711 135.182 223.421 139.621C223.319 139.758 223.081 139.627 223.182 139.487C223.584 138.946 223.99 138.413 224.407 137.883C229.579 131.306 235.92 125.651 243.14 121.175C244.353 120.422 245.59 119.705 246.851 119.023C247.486 118.678 248.124 118.339 248.774 118.019C249.396 117.671 250.093 117.464 250.812 117.415C253.286 117.378 254.568 120.057 255.447 121.859C255.721 122.426 256.001 122.992 256.285 123.557C257.355 125.695 258.466 127.816 259.62 129.919C260.329 131.216 261.056 132.505 261.799 133.787Z" fill="#AAAAAA"/>
<path d="M234.563 126.21C234.419 126.057 234.277 125.904 234.132 125.751C232.992 124.544 231.768 123.352 230.201 122.661C229.455 122.321 228.639 122.14 227.812 122.131C226.959 122.154 226.117 122.329 225.332 122.649C224.958 122.791 224.593 122.953 224.233 123.126C223.822 123.323 223.419 123.534 223.017 123.747C222.262 124.146 221.518 124.563 220.783 124.997C219.321 125.861 217.905 126.791 216.535 127.787C215.825 128.303 215.129 128.837 214.448 129.387C213.815 129.898 213.194 130.423 212.586 130.962C212.456 131.076 212.262 130.891 212.392 130.776C212.552 130.633 212.714 130.492 212.876 130.351C213.334 129.956 213.799 129.568 214.271 129.187C215.133 128.492 216.016 127.824 216.922 127.183C218.331 126.185 219.788 125.255 221.294 124.392C222.046 123.962 222.809 123.549 223.582 123.154C223.816 123.035 224.052 122.919 224.291 122.809C224.833 122.547 225.396 122.328 225.975 122.153C226.795 121.899 227.663 121.818 228.519 121.914C229.346 122.029 230.142 122.293 230.866 122.691C232.404 123.512 233.597 124.783 234.757 126.024C234.874 126.15 234.681 126.336 234.563 126.21Z" fill="#BFBFBF"/>
<path d="M223.31 132.014C222.919 132.032 222.533 131.926 222.211 131.713C221.36 131.096 221.383 129.616 222.28 127.186C222.524 126.527 222.906 125.924 223.404 125.412C223.901 124.901 224.503 124.492 225.173 124.212C225.799 123.944 226.478 123.804 227.164 123.8C227.851 123.796 228.531 123.929 229.161 124.189C229.271 124.235 229.38 124.284 229.487 124.337C230.216 124.727 230.9 125.191 231.526 125.721C232.059 126.162 232.627 126.564 233.225 126.92L233.425 127.032L233.235 127.16C228.407 130.41 225.134 132.014 223.31 132.014Z" fill="#00B5B5"/>
<path d="M241.876 112.67C240.289 112.669 238.75 112.142 237.524 111.178C236.297 110.214 235.459 108.873 235.151 107.384C233.823 107.641 232.605 108.268 231.65 109.186C230.695 110.105 230.046 111.273 229.785 112.544C229.523 113.815 229.661 115.131 230.182 116.327C230.702 117.523 231.581 118.545 232.708 119.263C233.835 119.982 235.159 120.365 236.513 120.365C237.868 120.364 239.192 119.98 240.318 119.261C241.445 118.542 242.323 117.519 242.843 116.323C243.362 115.127 243.499 113.811 243.237 112.54C242.789 112.626 242.333 112.67 241.876 112.67Z" fill="#3F3D56"/>
<path opacity="0.74" d="M58.3673 123.215C64.0173 123.215 68.5975 118.835 68.5975 113.433C68.5975 108.03 64.0173 103.65 58.3673 103.65C52.7173 103.65 48.1371 108.03 48.1371 113.433C48.1371 118.835 52.7173 123.215 58.3673 123.215Z" fill="#3F3D56"/>
<path opacity="0.74" d="M68.5975 123.215C74.2475 123.215 78.8277 118.835 78.8277 113.433C78.8277 108.03 74.2475 103.65 68.5975 103.65C62.9475 103.65 58.3673 108.03 58.3673 113.433C58.3673 118.835 62.9475 123.215 68.5975 123.215Z" fill="#00B5B5"/>
<path opacity="0.74" d="M63.569 115.419C69.219 115.419 73.7992 111.039 73.7992 105.636C73.7992 100.233 69.219 95.8531 63.569 95.8531C57.919 95.8531 53.3387 100.233 53.3387 105.636C53.3387 111.039 57.919 115.419 63.569 115.419Z" fill="#E5E5E5"/>
<path d="M90.3197 102.833L64.0424 110.727L64.221 111.271L90.4984 103.376L90.3197 102.833Z" fill="#3F3D56"/>
<path d="M90.487 104.153C91.1455 104.153 91.6793 103.643 91.6793 103.013C91.6793 102.384 91.1455 101.873 90.487 101.873C89.8286 101.873 89.2948 102.384 89.2948 103.013C89.2948 103.643 89.8286 104.153 90.487 104.153Z" fill="#3F3D56"/>
<path d="M261.078 154.314C262.824 155.492 264.502 156.692 266.422 157.598C266.386 157.738 266.347 157.88 266.311 158.02C266.076 157.914 265.847 157.803 265.617 157.689C263.671 156.714 261.996 155.389 260.168 154.237C259.263 153.639 258.273 153.165 257.23 152.829C256.142 152.517 255.005 152.389 253.87 152.453C249.14 152.676 245.087 155.375 240.69 156.734C238.538 157.401 236.249 157.758 234.005 157.339C231.76 156.92 229.766 155.779 227.784 154.748C225.829 153.727 223.698 152.701 221.415 152.701C219.555 152.704 217.599 153.417 216.604 154.99C216.573 155.037 216.524 155.071 216.468 155.084C216.411 155.097 216.352 155.088 216.302 155.06C216.252 155.032 216.215 154.986 216.2 154.933C216.184 154.879 216.191 154.822 216.219 154.773C216.442 154.415 216.716 154.088 217.033 153.801C218.333 152.624 220.243 152.16 221.999 152.296C224.27 152.473 226.342 153.499 228.306 154.531C230.389 155.626 232.523 156.803 234.932 157.042C237.31 157.282 239.665 156.686 241.871 155.885C246.142 154.332 250.356 151.743 255.107 152.031C257.349 152.168 259.268 153.097 261.078 154.314Z" fill="#3F3D56"/>
<path d="M74.1221 71.8825V72.4611C73.9218 72.4232 73.7182 72.4041 73.514 72.4041H70.3963V78.8057C70.3957 79.7535 70.0018 80.6623 69.3009 81.3325C68.6001 82.0027 67.6497 82.3794 66.6586 82.38H62.0506V83.3661C62.0506 83.7615 62.1327 84.1529 62.292 84.5176H61.6542C61.5209 84.1472 61.4534 83.7579 61.4545 83.3661V82.38H58.921V81.8099H61.4545V75.4083C61.455 74.4605 61.849 73.5517 62.5498 72.8815C63.2507 72.2113 64.201 71.8346 65.1922 71.834H69.8002V70.8365H70.3963V71.834H73.514C73.7177 71.8342 73.9211 71.8505 74.1221 71.8825Z" fill="#00B5B5"/>
<path d="M66.6586 67.2736H58.3367C57.3456 67.2742 56.3953 67.6509 55.6944 68.3211C54.9936 68.9913 54.5996 69.9001 54.5991 70.8478V78.8057C54.5996 79.7535 54.9936 80.6623 55.6944 81.3325C56.3953 82.0026 57.3456 82.3794 58.3367 82.3799H66.6586C67.6497 82.3794 68.6001 82.0026 69.3009 81.3325C70.0017 80.6623 70.3957 79.7535 70.3963 78.8057V70.8365C70.3927 69.8906 69.9974 68.9846 69.2969 68.3169C68.5963 67.6491 67.6477 67.274 66.6586 67.2736ZM69.8001 78.8057C69.799 79.6022 69.4677 80.3657 68.8788 80.9288C68.2898 81.492 67.4914 81.8088 66.6586 81.8099H58.3367C57.5039 81.8088 56.7055 81.492 56.1166 80.9288C55.5276 80.3657 55.1963 79.6022 55.1952 78.8057V70.8478C55.1963 70.0514 55.5276 69.2879 56.1166 68.7248C56.7055 68.1616 57.5039 67.8447 58.3367 67.8437H66.6586C67.4894 67.8446 68.2861 68.1598 68.8747 68.7206C69.4633 69.2813 69.796 70.0419 69.8001 70.8364V78.8057Z" fill="#3F3D56"/>
<path d="M61.4545 81.8099V82.3799H62.0506V81.8099H61.4545ZM61.4545 81.8099V82.3799H62.0506V81.8099H61.4545ZM74.1221 71.8825C73.9211 71.8505 73.7178 71.8342 73.514 71.834H65.1922C64.201 71.8346 63.2507 72.2113 62.5499 72.8815C61.849 73.5517 61.4551 74.4605 61.4545 75.4082V83.3661C61.4534 83.7579 61.5209 84.1471 61.6542 84.5176C61.9058 85.224 62.3822 85.8374 63.0166 86.2718C63.6511 86.7063 64.4118 86.94 65.1922 86.9403H73.514C74.5051 86.9398 75.4555 86.563 76.1563 85.8929C76.8572 85.2227 77.2511 84.3139 77.2517 83.3661V75.4082C77.2515 74.5613 76.9367 73.7419 76.3635 73.0961C75.7903 72.4504 74.996 72.0203 74.1221 71.8825ZM76.6556 83.3661C76.6545 84.1625 76.3231 84.926 75.7342 85.4892C75.1453 86.0524 74.3469 86.3692 73.514 86.3703H65.1922C64.3593 86.3691 63.5609 86.0523 62.9721 85.4891C62.3832 84.926 62.0518 84.1625 62.0506 83.3661V75.4082C62.0517 74.6118 62.3831 73.8483 62.972 73.2852C63.5609 72.722 64.3593 72.4052 65.1922 72.4041H73.514C74.3471 72.4044 75.146 72.721 75.7351 73.2843C76.3242 73.8476 76.6553 74.6116 76.6556 75.4082V83.3661ZM61.4545 81.8099V82.3799H62.0506V81.8099H61.4545Z" fill="#3F3D56"/>
<path d="M55.5678 156.113H20.2178C19.9717 156.113 19.7357 156.206 19.5614 156.373C19.3872 156.539 19.2888 156.764 19.2878 156.999V159.003C20.4541 163.275 21.8661 167.481 23.5173 171.604H55.5678C55.6895 171.604 55.8101 171.581 55.9226 171.537C56.0352 171.492 56.1374 171.427 56.2235 171.345C56.3096 171.262 56.3779 171.165 56.4244 171.057C56.471 170.949 56.4949 170.834 56.4947 170.718V156.999C56.4945 156.764 56.3967 156.539 56.2229 156.373C56.0491 156.207 55.8135 156.113 55.5678 156.113Z" fill="#9E9E9E"/>
<path d="M52.1997 176.053H25.4041C25.723 176.769 26.0479 177.478 26.3847 178.185H52.1997C53.6542 178.205 53.6393 176.033 52.1997 176.053Z" fill="#BFBFBF"/>
<path d="M52.1997 180.939H27.7289C28.0866 181.654 28.4542 182.365 28.8318 183.071H52.1997C53.6542 183.091 53.6393 180.921 52.1997 180.939Z" fill="#BFBFBF"/>
<path d="M52.1997 185.827H30.337C30.7364 186.542 31.1477 187.252 31.565 187.959H52.1997C53.6542 187.979 53.6393 185.807 52.1997 185.827Z" fill="#BFBFBF"/>
<path d="M235.463 54.4403H235.293C235.822 54.4408 236.343 54.5587 236.816 54.7848H236.043C235.21 54.7857 234.411 55.1024 233.823 55.6656C233.234 56.2288 232.902 56.9923 232.901 57.7888V65.7469C232.902 66.5434 233.234 67.3069 233.823 67.8701C234.411 68.4333 235.21 68.7501 236.043 68.751H236.536C236.14 68.8995 235.718 68.976 235.293 68.9766H235.463C236.375 68.9756 237.249 68.6287 237.894 68.0121C238.538 67.3955 238.901 66.5595 238.902 65.6875V57.7294C238.901 56.8574 238.538 56.0214 237.894 55.4048C237.249 54.7882 236.375 54.4413 235.463 54.4403Z" fill="#2F2E41"/>
<path d="M213.406 54.4403H213.236C213.765 54.4408 214.286 54.5587 214.759 54.7848H213.986C213.153 54.7857 212.355 55.1024 211.766 55.6656C211.177 56.2288 210.846 56.9923 210.845 57.7888V65.7469C210.846 66.5434 211.177 67.3069 211.766 67.8701C212.355 68.4333 213.153 68.7501 213.986 68.751H214.479C214.083 68.8995 213.662 68.976 213.236 68.9766H213.406C214.318 68.9756 215.192 68.6287 215.837 68.0121C216.482 67.3955 216.845 66.5595 216.846 65.6875V57.7294C216.845 56.8574 216.482 56.0214 215.837 55.4048C215.192 54.7882 214.318 54.4413 213.406 54.4403Z" fill="#005F5F"/>
<path d="M214.02 68.7758C213.187 68.7749 212.388 68.4581 211.799 67.8949C211.21 67.3317 210.879 66.5682 210.878 65.7717V57.8136C210.879 57.0171 211.21 56.2536 211.799 55.6904C212.388 55.1272 213.187 54.8104 214.02 54.8095H214.793C214.32 54.5835 213.798 54.4656 213.27 54.4651H204.948C204.036 54.4661 203.161 54.813 202.517 55.4296C201.872 56.0462 201.509 56.8822 201.508 57.7542V65.7123C201.509 66.5843 201.872 67.4203 202.517 68.0369C203.161 68.6535 204.036 69.0004 204.948 69.0014H213.27C213.695 69.0008 214.116 68.9243 214.512 68.7757L214.02 68.7758Z" fill="#00B5B5"/>
<path d="M236.076 68.7758C235.243 68.7749 234.445 68.4581 233.856 67.8949C233.267 67.3317 232.936 66.5682 232.935 65.7717V57.8136C232.936 57.0171 233.267 56.2536 233.856 55.6904C234.445 55.1272 235.243 54.8104 236.076 54.8095H236.849C236.376 54.5835 235.855 54.4656 235.326 54.4651H227.004C226.092 54.4661 225.218 54.813 224.573 55.4296C223.928 56.0462 223.566 56.8822 223.565 57.7542V65.7123C223.566 66.5843 223.928 67.4203 224.573 68.0369C225.218 68.6535 226.092 69.0004 227.004 69.0014H235.326C235.751 69.0008 236.173 68.9243 236.569 68.7757L236.076 68.7758Z" fill="#3F3D56"/>
<path d="M245.903 56.4456C248.957 60.4635 251.751 64.6565 254.27 69.0009H249.06C248.148 68.9996 247.274 68.6526 246.629 68.0361C245.984 67.4195 245.622 66.5837 245.62 65.7117V57.7538C245.62 57.3038 245.716 56.8585 245.903 56.4456Z" fill="#005656"/>
<path d="M235.456 73.1765L232.541 69.0009L230.41 65.9483C230.286 65.77 230.111 65.629 229.906 65.5418C229.702 65.4545 229.475 65.4245 229.254 65.4552C229.032 65.4859 228.824 65.5761 228.653 65.7154C228.483 65.8546 228.357 66.0371 228.291 66.2419L227.394 69.0009L225.587 74.5446C225.516 74.7655 225.517 75.0019 225.59 75.2223C225.663 75.4428 225.804 75.6367 225.995 75.7782C226.186 75.9198 226.418 76.0022 226.659 76.0146C226.901 76.0269 227.14 75.9685 227.346 75.8472L227.987 75.4681C228.116 75.3921 228.263 75.3488 228.414 75.3423C228.566 75.3359 228.716 75.3665 228.852 75.4313C228.987 75.4961 229.103 75.593 229.189 75.7126C229.274 75.8323 229.326 75.9708 229.34 76.1151L229.927 82.2431C229.955 82.5246 230.091 82.7862 230.309 82.9769C230.527 83.1677 230.812 83.2739 231.108 83.2749C231.143 83.2749 231.179 83.2721 231.218 83.2692L232.118 83.1923C232.273 83.1788 232.424 83.1362 232.562 83.0668C232.7 82.9975 232.823 82.9027 232.922 82.7881C233.022 82.6735 233.097 82.5411 233.143 82.3987C233.189 82.2563 233.206 82.1066 233.191 81.9581L232.586 75.6306C232.572 75.4819 232.598 75.3323 232.664 75.1967C232.729 75.0612 232.831 74.9445 232.958 74.8584C233.086 74.7723 233.235 74.7198 233.39 74.7062C233.546 74.6927 233.702 74.7186 233.844 74.7812L233.975 74.8382C234.21 74.9416 234.473 74.9688 234.726 74.9156C234.978 74.8625 235.206 74.7319 235.374 74.5438C235.541 74.3556 235.64 74.1202 235.655 73.8734C235.67 73.6266 235.6 73.3819 235.456 73.1765Z" fill="#CCCCCC"/>
</g>
<defs>
<clipPath id="clip0_6_188">
<rect width="269" height="250" fill="white"/>
</clipPath>
</defs>
</svg>
